<svg width="105" height="102" viewBox="0 0 105 102" fill="none" xmlns="http://www.w3.org/2000/svg">
<g clip-path="url(#clip0_46_469)">
<rect width="105" height="102" fill="#D9D9D9"/>
<path d="M58.5381 67.6832C52.6182 72.1183 46.3073 73.2871 39.6054 71.1894C25.7291 66.8484 17.4034 57.1946 14.6281 42.2281C14.5937 42.0432 14.5078 41.8717 14.3802 41.7331C14.2526 41.5946 14.0884 41.4946 13.9064 41.4447C7.42363 39.7494 2.5519 39.5568 0.438234 31.9408C-0.283504 29.3208 -0.12455 26.5253 0.915096 23.5542C5.02643 11.9184 16.8191 10.8396 27.0394 8.99016C45.1001 5.70232 63.2166 2.75697 81.3889 0.1541C94.7282 -1.74668 103.892 13.8705 104.987 25.0954C105.015 25.4077 104.96 25.7213 104.829 26.0052C104.698 26.2891 104.495 26.5333 104.24 26.7137L101.366 28.7429C100.919 29.0511 100.721 29.4749 100.773 30.0143C101.288 35.6824 99.428 40.1647 95.1921 43.4611C88.0392 49.0221 81.1698 55.1868 73.7462 61.1204C73.4631 61.3478 73.2603 61.6589 73.1675 62.0079C73.0747 62.3569 73.0969 62.7255 73.2307 63.0597C74.455 66.1549 75.7052 74.1047 79.1592 75.0551C84.7914 76.5963 92.0732 80.1538 92.8336 86.4598C93.478 91.8925 89.2765 96.5545 84.4305 98.481C72.5648 103.182 60.9525 103.173 49.5938 98.4553C46.2428 97.0682 42.8275 93.9602 41.7706 90.3641C39.1543 81.451 48.9751 76.3394 56.5276 74.6698C56.7014 74.6308 56.8622 74.5491 56.9952 74.4323C57.1281 74.3155 57.2289 74.1675 57.288 74.002L59.4274 68.351C59.4719 68.2341 59.4771 68.1059 59.4422 67.9858C59.4073 67.8657 59.3343 67.76 59.2341 67.6848C59.1339 67.6095 59.0119 67.5687 58.8864 67.5684C58.7609 67.5681 58.6387 67.6084 58.5381 67.6832ZM65.1884 48.6369C66.2711 49.6215 67.6544 49.553 69.3384 48.4314C80.5512 40.9652 91.7853 33.4649 103.041 25.9302C103.41 25.6905 103.578 25.348 103.544 24.9028C102.77 13.6265 93.4136 -0.321095 80.6285 1.60537C63.7879 4.13118 46.8271 6.89245 29.746 9.88918C29.6484 9.90393 29.5583 9.95018 29.4896 10.0208C29.4209 10.0915 29.3774 10.1826 29.3657 10.2803C29.354 10.378 29.3748 10.4768 29.4248 10.5616C29.4749 10.6464 29.5515 10.7124 29.6428 10.7497C36.0483 13.4724 41.2551 17.0942 45.8175 22.7708C52.3132 30.8363 57.6489 41.8043 65.1884 48.6369ZM23.7658 14.8851C1.28885 11.5845 -2.86114 41.9327 13.5842 39.6724C13.8196 39.6408 14.0351 39.5252 14.1896 39.3475C14.3441 39.1699 14.4268 38.9426 14.4219 38.7091C14.3618 29.6761 17.5881 22.0901 24.1009 15.9511C24.1878 15.872 24.2502 15.7698 24.2808 15.6566C24.3115 15.5434 24.309 15.4238 24.2739 15.3119C24.2387 15.1999 24.1722 15.1004 24.0822 15.0248C23.9922 14.9492 23.8825 14.9008 23.7658 14.8851ZM22.9539 20.549C25.2823 19.5814 27.6967 18.6739 30.197 17.8262C30.3057 17.7907 30.4008 17.7225 30.469 17.6309C30.5373 17.5394 30.5754 17.4291 30.5782 17.3151C30.5811 17.2012 30.5484 17.0891 30.4848 16.9943C30.4211 16.8996 30.3296 16.8268 30.2228 16.7859L27.439 15.6943C27.3077 15.6406 27.1645 15.6242 27.0255 15.6469C26.8866 15.6696 26.7575 15.7305 26.6528 15.8227L21.5748 20.3563C21.5228 20.4027 21.4844 20.462 21.4634 20.5283C21.4424 20.5947 21.4396 20.6658 21.4552 20.7346C21.4708 20.8034 21.5044 20.8675 21.5525 20.9205C21.6006 20.9736 21.6616 21.0137 21.7295 21.037C22.4942 21.2853 22.9023 21.1226 22.9539 20.549ZM41.2422 25.5963C41.2422 25.7076 41.2422 25.8189 41.2422 25.9302C41.2422 26.1443 41.3496 26.2513 41.5644 26.2513H42.2346C42.3035 26.2505 42.3712 26.229 42.4281 26.1896C42.4851 26.1503 42.5286 26.0951 42.5527 26.0317C42.5767 25.9682 42.5801 25.8997 42.5624 25.8355C42.5447 25.7713 42.5067 25.7147 42.4537 25.6734L34.7595 19.2647C34.5961 19.1262 34.4059 19.0219 34.2 18.9579C33.9941 18.8939 33.7768 18.8716 33.5609 18.8922C17.0511 20.6132 13.3393 33.9957 17.6053 47.7507C21.0335 58.8086 34.695 72.6278 47.8152 67.5162C57.4169 63.7789 63.8481 48.7139 54.2077 41.008C53.718 40.6227 53.5504 40.7298 53.7051 41.3291C55.8187 49.7414 55.7801 58.4361 48.2018 63.6119C45.0056 65.7824 36.6798 65.1274 33.4706 63.4193C23.4307 58.0509 18.0822 46.826 19.4612 35.6653C20.4536 27.5998 27.0137 20.5361 35.7647 23.5928C37.5261 24.2007 39.2875 24.7786 41.0489 25.3266C41.1778 25.3694 41.2422 25.4593 41.2422 25.5963ZM40.7138 62.135C38.8665 62.5117 37.4316 62.4261 36.4091 61.8781C27.5764 57.1775 22.5586 49.8741 21.3557 39.9678C21.3128 39.5825 21.1152 39.4711 20.7629 39.6338C20.2817 39.8564 20.0626 40.2289 20.1056 40.7512C20.9433 50.1395 28.934 64.4596 40.0565 64.0614C42.0671 63.9929 44.069 64.0229 46.0624 64.1513C47.0333 64.2198 47.3125 63.7189 46.9001 62.6487C46.7541 62.272 46.4834 62.105 46.0882 62.1478L41.8866 62.5716C41.7577 62.5888 41.6847 62.5716 41.6675 62.5203C41.6246 62.4004 41.5859 62.2848 41.5515 62.1735C41.4914 62.0023 41.5515 61.9209 41.732 61.9295C48.756 62.1735 52.7642 57.871 53.1122 50.9871C53.5762 41.6887 50.2897 34.2269 43.2528 28.6016C36.2158 22.9763 27.6967 22.347 22.7992 31.0161C22.5844 31.4014 22.477 31.8124 22.477 32.249C22.4684 33.8073 22.2407 35.3314 21.7939 36.8212C21.6737 37.2236 21.6737 37.626 21.7939 38.0284C22.7348 41.3291 22.7219 44.5142 24.1009 47.4681C27.1425 53.9796 33.1484 60.9791 40.7009 61.8909C41.2336 61.9509 41.2379 62.0322 40.7138 62.135ZM98.4013 30.5409L68.011 50.8073C67.8448 50.9165 67.7038 51.06 67.5971 51.2283C67.4905 51.3965 67.4207 51.5857 67.3923 51.7834C66.9541 55.0713 65.8629 58.0851 64.1187 60.825C64.0622 60.9215 64.0407 61.0345 64.0578 61.1449C64.0748 61.2554 64.1294 61.3567 64.2124 61.4319C64.2954 61.5071 64.4017 61.5516 64.5137 61.558C64.6257 61.5644 64.7365 61.5323 64.8276 61.4671C69.1193 58.1279 69.4802 55.3281 71.5423 50.589C71.711 50.1946 71.993 49.8556 72.3543 49.6129C80.2418 44.313 88.1552 39.0473 96.0943 33.8159C97.2027 33.0838 99.007 32.8013 99.6901 31.9151C99.8332 31.7368 99.9071 31.5131 99.8983 31.2849C99.8895 31.0568 99.7985 30.8394 99.6421 30.6726C99.4856 30.5058 99.2741 30.4007 99.0463 30.3765C98.8184 30.3523 98.5895 30.4107 98.4013 30.5409ZM21.5362 35.1259C21.7596 34.6293 21.7939 34.0813 21.6393 33.482C21.6111 33.3574 21.5373 33.2478 21.4323 33.1745C21.3274 33.1012 21.1988 33.0694 21.0717 33.0855C20.9445 33.1015 20.8279 33.1642 20.7446 33.2612C20.6613 33.3583 20.6173 33.4828 20.6211 33.6104V34.9332C20.6199 35.0431 20.6569 35.15 20.7259 35.2357C20.7949 35.3215 20.8915 35.3807 20.9994 35.4035C21.1073 35.4262 21.2197 35.4109 21.3176 35.3603C21.4155 35.3097 21.4927 35.2269 21.5362 35.1259ZM94.4704 42.0355C96.0943 40.6227 99.2004 37.8229 98.891 35.4727C98.8642 35.2713 98.7863 35.0801 98.6647 34.9171C98.5431 34.7541 98.3818 34.6247 98.196 34.5411C98.0102 34.4576 97.8061 34.4226 97.603 34.4395C97.3998 34.4564 97.2044 34.5247 97.0351 34.6379L73.5142 50.2936C73.1561 50.5341 72.8957 50.8938 72.7796 51.3082C71.7485 54.9813 70.0258 58.3034 67.6114 61.2745C67.5351 61.3665 67.4845 61.477 67.4646 61.5947C67.4446 61.7125 67.4562 61.8334 67.4979 61.9453C67.5397 62.0572 67.6103 62.1562 67.7026 62.2323C67.7949 62.3084 67.9057 62.359 68.0238 62.379C70.2277 62.7771 71.4006 61.2873 72.9085 60.0801C80.186 54.1979 87.3733 48.1831 94.4704 42.0355ZM49.452 68.3767C48.8248 68.7192 48.3307 69.066 47.9698 69.417C47.8977 69.4818 47.8499 69.5692 47.8345 69.6647C47.819 69.7603 47.8369 69.8583 47.8851 69.9423C47.9333 70.0263 48.0089 70.0914 48.0993 70.1267C48.1898 70.162 48.2896 70.1653 48.3823 70.1362C56.8756 67.7988 65.4075 61.146 65.7169 51.7963C65.7254 51.4195 65.5665 51.1327 65.24 50.9358L61.0642 48.4827C60.952 48.419 60.8243 48.3864 60.695 48.3886C60.5657 48.3907 60.4398 48.4276 60.331 48.4951C60.2221 48.5625 60.1343 48.6581 60.0773 48.7714C60.0203 48.8847 59.9961 49.0114 60.0074 49.1377C60.6862 57.8111 57.1677 64.2241 49.452 68.3767ZM71.2072 63.278C68.1141 64.1899 62.6624 62.5203 61.5024 66.0778C59.6208 71.7801 57.752 77.4953 55.8961 83.2234C55.0583 85.7791 55.793 87.3845 58.0999 88.5019C63.7364 91.2246 69.3127 91.3959 74.8288 89.0156C78.0251 87.6414 79.0432 85.8048 78.0122 82.4271C75.4861 74.1647 73.5271 67.94 72.1352 63.7532C71.9805 63.2908 71.6712 63.1324 71.2072 63.278ZM76.414 89.6449C70.2363 92.9927 63.8266 92.9713 57.1849 89.5807C52.0683 86.9607 55.1872 81.0657 56.3987 77.1486C56.4254 77.0597 56.4298 76.9654 56.4113 76.8745C56.3928 76.7836 56.3521 76.6991 56.293 76.6286C56.2339 76.5582 56.1583 76.5042 56.0731 76.4716C55.988 76.439 55.896 76.4289 55.8059 76.4422C53.8468 76.6905 52.0253 77.2813 50.3413 78.2145C50.196 78.2912 50.0872 78.4222 50.0389 78.5787C49.9905 78.7353 50.0066 78.9046 50.0835 79.0493C50.1604 79.1941 50.2919 79.3025 50.449 79.3507C50.6061 79.3988 50.776 79.3828 50.9212 79.3062C51.9007 78.8267 52.8459 78.8396 53.7566 79.3447C53.9104 79.4292 54.0405 79.5511 54.1344 79.6989C54.2284 79.8466 54.2831 80.0154 54.2934 80.1891C54.3038 80.3628 54.2693 80.5357 54.1934 80.6914C54.1175 80.847 54.0027 80.9803 53.8597 81.0786C51.7719 82.5427 49.7656 82.4142 47.841 80.6933C47.6633 80.5336 47.4362 80.4399 47.1987 80.4282C46.9612 80.4165 46.7281 80.4875 46.5393 80.629C37.0149 87.8212 47.5059 94.6923 54.0273 96.6572C64.7502 99.8852 74.9706 99.213 84.6883 94.6409C97.6924 88.5276 89.0574 78.9466 79.8681 76.7247C79.5522 76.6462 79.2198 76.665 78.9148 76.7784C78.6098 76.8919 78.3464 77.0948 78.1594 77.3604C77.9725 77.626 77.8706 77.9418 77.8673 78.2662C77.864 78.5907 77.9595 78.9085 78.1411 79.1778C80.6671 83.005 81.028 87.1534 76.414 89.6449Z" fill="black"/>
<path d="M32.2795 45.4799C35.7973 51.3837 42.0327 54.1676 46.2068 51.6979C50.3809 49.2281 50.913 42.44 47.3953 36.5362C43.8776 30.6324 37.6421 27.8485 33.468 30.3183C29.2939 32.788 28.7618 39.5761 32.2795 45.4799Z" fill="black"/>
<path d="M85.3772 91.1476C87.2208 91.154 88.7183 90.2794 88.7221 89.1942C88.7259 88.109 87.2345 87.224 85.391 87.2176C83.5475 87.2112 82.0499 88.0857 82.0461 89.171C82.0423 90.2562 83.5337 91.1412 85.3772 91.1476Z" fill="black"/>
<path d="M57.8836 95.8864C59.8621 95.9208 61.482 95.0346 61.5018 93.907C61.5215 92.7793 59.9337 91.8373 57.9552 91.8029C55.9767 91.7685 54.3568 92.6547 54.337 93.7823C54.3173 94.91 55.9052 95.852 57.8836 95.8864Z" fill="black"/>
</g>
<defs>
<clipPath id="clip0_46_469">
<rect width="105" height="102" fill="white"/>
</clipPath>
</defs>
</svg>
