<svg width="117" height="86" viewBox="0 0 117 86" fill="none" xmlns="http://www.w3.org/2000/svg">
<g clip-path="url(#clip0_45_433)">
<rect width="117" height="86" fill="#D9D9D9"/>
<path d="M15.5709 15.8732C14.7199 15.8005 13.8568 15.7853 12.9816 15.8276C12.9562 15.8287 12.9438 15.842 12.9444 15.8673L12.9714 18.2782" stroke="#353535" stroke-width="2"/>
<path d="M15.576 75.5134C15.5665 75.5123 15.558 75.5129 15.5507 75.5151C15.54 75.5191 15.5343 75.5267 15.5338 75.538L15.5059 78.0469C15.5056 78.0696 15.5099 78.0921 15.5184 78.1131C15.527 78.1342 15.5396 78.1533 15.5555 78.1694C15.5715 78.1855 15.5905 78.1983 15.6114 78.2071C15.6323 78.2158 15.6548 78.2203 15.6775 78.2203H18.1189C18.1409 78.2203 18.162 78.2155 18.1823 78.2059L18.2381 78.1789" stroke="#353535" stroke-width="2"/>
<path d="M46.833 57.2945L46.8778 55.0198C46.8779 55.0125 46.8766 55.0052 46.8739 54.9985C46.8712 54.9917 46.8671 54.9855 46.862 54.9803C46.8569 54.9751 46.8508 54.971 46.8441 54.9682C46.8374 54.9654 46.8302 54.9639 46.8229 54.9639L44.1287 54.9538" stroke="#353535" stroke-width="2"/>
<path d="M18.2398 54.9233L18.2246 54.9073C18.2071 54.8898 18.186 54.881 18.1612 54.881H15.5768C15.5498 54.881 15.5363 54.8949 15.5363 54.9225C15.5312 56.0488 15.5306 56.8451 15.5346 57.3114C15.5346 57.3334 15.5487 57.348 15.5768 57.3553" stroke="#353535" stroke-width="2"/>
<path d="M18.3623 59.6927L20.5434 59.696C20.551 59.696 20.5585 59.6945 20.5654 59.6916C20.5724 59.6886 20.5788 59.6843 20.584 59.6789C20.5893 59.6734 20.5935 59.667 20.5962 59.6599C20.5989 59.6528 20.6002 59.6453 20.6 59.6377L20.5535 57.4839" stroke="#353535" stroke-width="2"/>
<path d="M20.6381 59.8576L20.7159 59.7958C20.7234 59.7895 20.7286 59.781 20.7307 59.7715C20.7329 59.7619 20.7319 59.752 20.7279 59.743C20.7239 59.7341 20.7171 59.7268 20.7085 59.7221C20.6999 59.7175 20.69 59.7157 20.6804 59.7172C20.6082 59.7307 20.5843 59.7744 20.6085 59.8482C20.6094 59.8512 20.6109 59.8539 20.6131 59.8561C20.6152 59.8583 20.6179 59.8599 20.6208 59.8609C20.6237 59.8618 20.6268 59.862 20.6299 59.8614C20.6329 59.8608 20.6357 59.8595 20.6381 59.8576Z" stroke="#353535" stroke-width="2"/>
<path d="M35.9292 62.6659L35.8599 59.9497C35.8597 59.9398 35.8556 59.9303 35.8485 59.9234C35.8413 59.9164 35.8318 59.9125 35.8218 59.9125H26.3105C26.297 59.9125 26.2836 59.9152 26.2711 59.9204C26.2585 59.9256 26.2472 59.9332 26.2376 59.9428C26.228 59.9523 26.2204 59.9637 26.2152 59.9762C26.2101 59.9887 26.2074 60.0022 26.2074 60.0157L26.2065 62.6879" stroke="#353535" stroke-width="2"/>
<path d="M5.47891 0H56.8989C57.0364 0.0513012 57.1052 0.128817 57.1052 0.232547C57.1052 2.66174 57.1052 5.08643 57.1052 7.50661C57.1052 7.54248 57.0981 7.57799 57.0844 7.61113C57.0706 7.64427 57.0505 7.67438 57.0252 7.69974C56.9998 7.72511 56.9697 7.74523 56.9366 7.75895C56.9035 7.77268 56.868 7.77974 56.8321 7.77974H5.53893C5.47122 7.77974 5.40628 7.75284 5.3584 7.70494C5.31052 7.65705 5.28363 7.5921 5.28363 7.52436C5.28306 5.11546 5.28306 2.68486 5.28363 0.232547C5.28363 0.136709 5.34872 0.0591937 5.47891 0Z" fill="black"/>
<path d="M107.072 0H108.994C109.944 0.951046 110.905 1.89166 111.875 2.82185C112.01 2.95038 112.076 3.10513 112.076 3.3047C112.076 3.80475 112.076 4.30451 112.075 4.80399C112.074 5.25048 111.907 5.17522 111.654 5.40608C110.824 6.15699 109.997 6.91016 109.173 7.66559C108.949 7.87107 107.493 7.77974 107.132 7.77974C107.036 7.77952 106.945 7.74132 106.877 7.67349C106.809 7.60567 106.771 7.51374 106.771 7.41782C106.77 5.07769 106.77 2.71079 106.771 0.317109C106.771 0.152494 106.872 0.0467912 107.072 0Z" fill="black"/>
<path d="M101.607 2.93094C102.056 2.7263 102.963 2.79648 103.473 2.78972C103.829 2.78464 103.96 2.88612 103.96 3.2565C103.96 6.37629 103.96 9.4958 103.96 12.615C103.96 12.7715 103.899 12.8628 103.862 13.0125C103.855 13.0375 103.843 13.0604 103.826 13.0793L99.0425 18.2156C99.0267 18.2325 99.0112 18.2319 98.996 18.2139C98.9898 18.2066 98.9814 18.2026 98.9706 18.2021C98.9554 18.2009 98.9425 18.206 98.9318 18.2173C98.8461 18.3041 98.7663 18.3475 98.6925 18.3475C97.9756 18.3509 97.2754 18.3515 96.5918 18.3492C96.4829 18.3488 96.3787 18.3051 96.302 18.2279C96.2253 18.1507 96.1824 18.0462 96.1826 17.9374C96.1832 14.711 96.1826 11.4695 96.1809 8.21271C96.1809 7.85332 96.3753 7.82034 96.5918 7.60893C98.2211 6.02028 99.8496 4.43079 101.477 2.84046C101.507 2.81114 101.528 2.8165 101.541 2.85652L101.557 2.90895C101.566 2.93432 101.582 2.94165 101.607 2.93094Z" fill="black"/>
<path d="M103.744 86H0.60772C0.174324 86.0181 -0.0282842 85.9295 -0.000105035 85.7345V80.9C0.0601984 80.7625 0.137691 80.6937 0.232373 80.6937C3.48876 80.6937 6.7288 80.6937 9.9525 80.6937C10.0202 80.6937 10.0852 80.6668 10.133 80.6189C10.1809 80.571 10.2078 80.5061 10.2078 80.4383V10.8663C10.2078 10.7878 10.239 10.7125 10.2945 10.657C10.35 10.6015 10.4252 10.5703 10.5037 10.5703H51.906C51.9732 10.5703 52.0377 10.597 52.0853 10.6446C52.1329 10.6922 52.1596 10.7567 52.1596 10.824V80.4189C52.1596 80.4918 52.1885 80.5617 52.24 80.6132C52.2916 80.6648 52.3615 80.6937 52.4343 80.6937H54.3576C54.4248 80.6937 54.4893 80.667 54.5369 80.6194C54.5844 80.5718 54.6112 80.5073 54.6112 80.44V49.9764C54.6112 49.8979 54.6423 49.8226 54.6978 49.7671C54.7533 49.7116 54.8286 49.6804 54.907 49.6804H56.8303C56.8975 49.6804 56.962 49.6537 57.0096 49.6061C57.0572 49.5586 57.0839 49.494 57.0839 49.4268V47.1436C57.0839 47.0707 57.1128 47.0008 57.1644 46.9492C57.2159 46.8977 57.2858 46.8687 57.3586 46.8687H59.6259C59.7006 46.8687 59.7723 46.8982 59.8253 46.9508C59.8783 47.0034 59.9085 47.0748 59.9091 47.1495L59.9328 49.447C59.9335 49.5092 59.9586 49.5685 60.0028 49.6122C60.0469 49.6559 60.1065 49.6804 60.1687 49.6804H62.0927C62.1712 49.6804 62.2465 49.7116 62.302 49.7671C62.3574 49.8226 62.3886 49.8979 62.3886 49.9764V80.44C62.3886 80.5073 62.4153 80.5718 62.4629 80.6194C62.5105 80.667 62.575 80.6937 62.6422 80.6937H103.706C103.773 80.6937 103.837 80.7204 103.885 80.768C103.932 80.8156 103.959 80.8801 103.959 80.9474C103.96 82.5411 103.961 84.1549 103.96 85.7886C103.96 85.8827 103.888 85.9532 103.744 86ZM12.9713 18.2782L12.9705 46.6768L13.0119 49.8352C13.0119 49.8685 13.0285 49.8845 13.0618 49.8834L15.5903 49.8073C15.6258 49.8062 15.6441 49.8233 15.6453 49.8589L15.7112 52.1167C15.7116 52.1323 15.7182 52.1472 15.7294 52.1581C15.7406 52.1689 15.7556 52.175 15.7712 52.175H43.8385C43.8532 52.175 43.8678 52.1721 43.8813 52.1664C43.8948 52.1607 43.907 52.1523 43.9172 52.1418C43.9274 52.1313 43.9353 52.1189 43.9405 52.1053C43.9458 52.0917 43.9482 52.0771 43.9476 52.0626L43.874 49.924C43.8729 49.8986 43.8659 49.8749 43.8529 49.8529L43.8115 49.7828L44.071 49.6771C44.1009 49.6647 44.1231 49.6725 44.1378 49.7007L44.1615 49.7456C44.1678 49.7572 44.1772 49.7669 44.1887 49.7734C44.2002 49.78 44.2133 49.7832 44.2266 49.7828L46.5826 49.7058C46.6556 49.7036 46.7248 49.673 46.7757 49.6204C46.8265 49.5678 46.8549 49.4975 46.8548 49.4242V16.2132C46.8548 16.1239 46.8194 16.0383 46.7563 15.9752C46.6932 15.9121 46.6076 15.8766 46.5184 15.8766L15.5709 15.8732C14.7199 15.8005 13.8567 15.7853 12.9815 15.8276C12.9561 15.8287 12.9437 15.8419 12.9443 15.8673L12.9713 18.2782ZM59.8873 52.4222C59.8871 52.3555 59.8604 52.2918 59.8131 52.2448C59.7659 52.1979 59.7019 52.1717 59.6353 52.1719L57.3393 52.1799C57.3063 52.18 57.2737 52.1866 57.2433 52.1994C57.2129 52.2121 57.1853 52.2307 57.162 52.2541C57.1388 52.2775 57.1204 52.3052 57.1079 52.3357C57.0954 52.3663 57.089 52.3989 57.0891 52.4319L57.1057 57.1928C57.106 57.2594 57.1326 57.3232 57.1799 57.3701C57.2271 57.417 57.2911 57.4433 57.3577 57.443L59.6537 57.435C59.6867 57.4349 59.7193 57.4283 59.7497 57.4156C59.7801 57.4028 59.8078 57.3842 59.831 57.3608C59.8542 57.3374 59.8726 57.3097 59.8851 57.2792C59.8976 57.2487 59.904 57.216 59.9039 57.183L59.8873 52.4222ZM15.5768 57.3553L15.5548 75.4686C15.5548 75.4782 15.5588 75.4861 15.5666 75.4923C15.5717 75.4968 15.5748 75.5038 15.5759 75.5134C15.5664 75.5123 15.5579 75.5128 15.5506 75.5151C15.5399 75.5191 15.5342 75.5267 15.5337 75.5379L15.5058 78.0469C15.5056 78.0696 15.5098 78.0921 15.5183 78.1131C15.5269 78.1341 15.5395 78.1533 15.5554 78.1694C15.5714 78.1855 15.5904 78.1983 15.6113 78.207C15.6323 78.2158 15.6547 78.2203 15.6774 78.2203H18.1188C18.1408 78.2203 18.1619 78.2155 18.1822 78.2059L18.238 78.1788C18.2634 78.2042 18.2902 78.2141 18.3183 78.2084C18.3505 78.2022 18.3685 78.1991 18.3724 78.1991C26.9226 78.1991 35.4727 78.1991 44.0228 78.1991C44.0645 78.2318 44.1054 78.2245 44.1454 78.1771L44.1649 78.1949C44.1834 78.2112 44.2071 78.2202 44.2316 78.2203H46.6849C46.8247 78.2203 46.8934 78.1501 46.8912 78.0097L46.8481 75.554C46.8481 75.5422 46.8436 75.5329 46.8346 75.5261C46.816 75.5114 46.8137 75.5069 46.8278 75.5126L46.8329 57.2944L46.8777 55.0197C46.8778 55.0124 46.8764 55.0052 46.8737 54.9984C46.871 54.9916 46.867 54.9855 46.8619 54.9803C46.8568 54.9751 46.8507 54.971 46.8439 54.9682C46.8372 54.9653 46.83 54.9639 46.8227 54.9639L44.1285 54.9538L18.2862 54.8929C18.2738 54.8929 18.2648 54.8982 18.2592 54.9089C18.2547 54.9185 18.2482 54.9233 18.2397 54.9233L18.2245 54.9072C18.207 54.8898 18.1859 54.881 18.1611 54.881H15.5768C15.5497 54.881 15.5362 54.8948 15.5362 54.9225C15.5311 56.0488 15.5306 56.8451 15.5345 57.3114C15.5345 57.3333 15.5486 57.348 15.5768 57.3553Z" fill="black"/>
<path d="M86.6739 28.5187C86.3763 28.5195 85.9756 28.6751 85.9756 28.1787C85.9739 24.9817 85.9739 21.7847 85.9756 18.5877C85.9756 18.5217 86.012 18.4549 86.0847 18.3873C86.1765 18.301 86.2245 18.2559 86.2284 18.252C87.7856 16.5596 89.325 14.8867 90.8467 13.2332C90.9016 13.1735 90.9682 13.1258 91.0424 13.0932C91.1167 13.0606 91.1968 13.0437 91.2778 13.0438H93.4141C93.5038 13.0438 93.5898 13.0794 93.6532 13.1428C93.7166 13.2063 93.7522 13.2923 93.7522 13.382V23.3832C93.7522 23.4131 93.7413 23.4379 93.7193 23.4576C91.8961 25.1083 90.0766 26.7612 88.2607 28.4164C88.0755 28.5855 86.9588 28.5187 86.6739 28.5187Z" fill="black"/>
<path d="M15.5709 15.8732L15.5464 18.2097C15.5464 18.2407 15.5309 18.2562 15.4999 18.2562L12.9714 18.2782L12.9444 15.8673C12.9438 15.842 12.9562 15.8287 12.9816 15.8276C13.8568 15.7853 14.7199 15.8005 15.5709 15.8732Z" fill="#696969"/>
<path d="M18.5806 18.3238C26.9881 18.3306 35.37 18.3317 43.7263 18.3272C43.8162 18.3272 43.9024 18.3629 43.966 18.4265C44.0296 18.4901 44.0653 18.5764 44.0653 18.6663V46.7097C44.0653 46.7575 44.0463 46.8033 44.0125 46.8371C43.9788 46.8709 43.933 46.8899 43.8852 46.8899H39.3413C39.2826 46.8899 39.2262 46.8664 39.1847 46.8247C39.1432 46.783 39.1198 46.7264 39.1198 46.6675V39.4272C39.1198 39.3487 39.0887 39.2734 39.0332 39.2179C38.9777 39.1624 38.9024 39.1312 38.824 39.1312H36.4569C36.4121 39.1312 36.3691 39.1134 36.3373 39.0817C36.3056 39.05 36.2878 39.007 36.2878 38.9621V36.8692C36.2878 36.8187 36.2678 36.7703 36.2321 36.7347C36.1964 36.699 36.1481 36.6789 36.0976 36.6789H26.249C26.2098 36.6789 26.1721 36.6945 26.1444 36.7223C26.1166 36.75 26.101 36.7877 26.101 36.8269V38.6983C26.101 38.8131 26.0554 38.9232 25.974 39.0044C25.8927 39.0856 25.7824 39.1312 25.6674 39.1312H23.4592C23.4088 39.1312 23.3604 39.1513 23.3247 39.187C23.2891 39.2227 23.269 39.2711 23.269 39.3215V46.7224C23.269 46.7375 23.2653 46.7522 23.2582 46.7654C23.2511 46.7785 23.2409 46.7896 23.2285 46.7977C23.0247 46.9279 22.7787 46.8493 22.5978 46.8493C21.1838 46.8481 19.7669 46.838 18.3473 46.8188C18.3357 46.8186 18.3248 46.8139 18.3167 46.8056C18.3087 46.7974 18.3041 46.7864 18.3041 46.7748L18.376 18.7652C18.376 18.7376 18.3687 18.712 18.354 18.6883L18.2298 18.4828C18.2145 18.4574 18.2162 18.4332 18.2348 18.4101C18.3388 18.2773 18.4445 18.3238 18.5806 18.3238Z" fill="black"/>
<path d="M73.1918 41.5802C73.0143 41.4897 72.9348 41.3806 72.9348 41.1718C72.9348 38.0525 72.9348 34.933 72.9348 31.8132C72.9348 31.4581 73.0997 31.4792 73.2983 31.278C74.9756 29.5783 76.6333 27.8941 78.2717 26.2254C78.3526 26.1434 78.462 26.0953 78.5777 26.0909L80.3285 26.0309C80.3782 26.0292 80.4277 26.0375 80.4741 26.0553C80.5205 26.0732 80.5628 26.1002 80.5985 26.1348C80.6343 26.1693 80.6627 26.2107 80.6821 26.2565C80.7015 26.3023 80.7115 26.3515 80.7114 26.4012L80.7131 36.3779C80.7131 36.436 80.692 36.4848 80.6497 36.5242L75.1835 41.5743C75.1582 41.5974 75.1283 41.6089 75.0939 41.6089L73.2518 41.5946C73.2312 41.5946 73.2107 41.5896 73.1918 41.5802Z" fill="black"/>
<path d="M62.7109 46.8882C62.492 46.8882 62.3686 46.6151 62.3686 46.4299C62.3674 44.9416 62.3671 43.453 62.3677 41.9641C62.3677 41.8305 62.492 41.6724 62.6036 41.5692C64.1827 40.1131 65.7619 38.6569 67.3411 37.2007C67.4586 37.0925 67.6927 36.8489 67.8779 36.6841C67.8969 36.6672 67.9213 36.6579 67.9463 36.6578H69.7648C69.8656 36.6578 69.9624 36.6979 70.0337 36.7693C70.1051 36.8407 70.1452 36.9374 70.1452 37.0384V46.4375C70.1452 46.5472 70.1059 46.6533 70.0344 46.7368L67.5414 49.6297C67.5221 49.6523 67.4981 49.6703 67.4711 49.6827C67.4441 49.6952 67.4147 49.7016 67.385 49.7016H65.6063C65.5006 49.7016 65.3992 49.66 65.3239 49.5858C65.2486 49.5116 65.2055 49.4107 65.2039 49.305L65.1727 47.2899C65.1711 47.1832 65.1276 47.0815 65.0515 47.0067C64.9754 46.9318 64.8729 46.8899 64.766 46.8899C64.1044 46.8905 63.4194 46.8899 62.7109 46.8882Z" fill="black"/>
<path d="M33.6321 41.5771L26.2756 41.59C26.1617 41.5902 26.0695 41.6827 26.0697 41.7967L26.0782 46.6894C26.0784 46.8034 26.1709 46.8956 26.2849 46.8954L33.6413 46.8826C33.7552 46.8824 33.8474 46.7898 33.8472 46.6759L33.8387 41.7831C33.8385 41.6691 33.746 41.5769 33.6321 41.5771Z" fill="black"/>
<path d="M13 47L15.5429 47.0025C15.5711 47.0025 15.5854 47.0166 15.586 47.0448L15.6553 50.0409C15.6565 50.0719 15.6725 50.0874 15.7035 50.0874L43.841 50.106L43.8824 50.1762C43.8954 50.1982 43.9024 50.2218 43.9036 50.2472L43.9771 52.3858C43.9777 52.4003 43.9753 52.4149 43.97 52.4285C43.9648 52.4421 43.9569 52.4546 43.9467 52.4651C43.9365 52.4756 43.9243 52.4839 43.9108 52.4896C43.8973 52.4953 43.8827 52.4983 43.8681 52.4983H15.8007C15.7851 52.4983 15.7701 52.4922 15.7589 52.4813C15.7477 52.4704 15.7411 52.4555 15.7407 52.4399L15.6748 50.1821C15.6736 50.1466 15.6553 50.1294 15.6198 50.1305L13.0913 50.2066C13.058 50.2077 13.0414 50.1917 13.0414 50.1584L13 47Z" fill="#696969"/>
<path d="M18.2398 54.9233L18.2389 57.242C18.2389 57.2568 18.236 57.2714 18.2304 57.2851C18.2247 57.2987 18.2164 57.3111 18.206 57.3216C18.1956 57.332 18.1832 57.3403 18.1695 57.3459C18.1559 57.3516 18.1413 57.3545 18.1265 57.3545L15.5768 57.3553C15.5487 57.348 15.5346 57.3334 15.5346 57.3114C15.5306 56.8451 15.5312 56.0488 15.5363 54.9225C15.5363 54.8949 15.5498 54.881 15.5768 54.881H18.1612C18.186 54.881 18.2071 54.8898 18.2246 54.9073L18.2398 54.9233Z" fill="#696969"/>
<path d="M44.1287 54.9537L46.8229 54.9639C46.8302 54.9639 46.8374 54.9653 46.8441 54.9681C46.8508 54.971 46.8569 54.9751 46.862 54.9803C46.8671 54.9855 46.8712 54.9916 46.8739 54.9984C46.8766 55.0052 46.8779 55.0124 46.8778 55.0197L46.833 57.2944L44.307 57.3587C44.284 57.3593 44.2611 57.3552 44.2396 57.3467C44.2182 57.3383 44.1986 57.3256 44.1821 57.3095C44.1655 57.2933 44.1524 57.274 44.1433 57.2527C44.1343 57.2314 44.1296 57.2085 44.1295 57.1853L44.1287 54.9537Z" fill="#696969"/>
<path d="M18.3625 59.6926L20.5435 59.696C20.5511 59.696 20.5586 59.6945 20.5656 59.6915C20.5726 59.6886 20.5789 59.6843 20.5842 59.6788C20.5895 59.6734 20.5936 59.6669 20.5964 59.6599C20.5991 59.6528 20.6004 59.6452 20.6002 59.6377L20.5537 57.4838L38.9685 57.4627C39.0142 57.4627 39.0581 57.4808 39.0904 57.513C39.1228 57.5452 39.141 57.5888 39.141 57.6344V59.7011C39.141 59.7571 39.1632 59.8109 39.2029 59.8506C39.2425 59.8902 39.2962 59.9125 39.3523 59.9125H41.191C41.2975 59.9125 41.3996 59.9548 41.4749 60.0301C41.5502 60.1055 41.5925 60.2076 41.5925 60.3142V72.6391C41.5925 72.7232 41.5591 72.8039 41.4997 72.8634C41.4402 72.9228 41.3596 72.9562 41.2755 72.9562H18.5332C18.508 72.9562 18.4829 72.9512 18.4596 72.9415C18.4363 72.9318 18.4151 72.9176 18.3972 72.8997C18.3794 72.8818 18.3653 72.8605 18.3557 72.8371C18.3461 72.8138 18.3412 72.7887 18.3413 72.7634L18.3718 60.1493C18.3723 60.1205 18.3639 60.0946 18.3464 60.0715C18.259 59.9559 18.2644 59.8296 18.3625 59.6926ZM20.6382 59.8575L20.716 59.7958C20.7235 59.7895 20.7287 59.7809 20.7309 59.7714C20.733 59.7619 20.732 59.7519 20.728 59.743C20.724 59.7341 20.7172 59.7268 20.7086 59.7221C20.7 59.7174 20.6901 59.7157 20.6805 59.7171C20.6083 59.7307 20.5844 59.7744 20.6086 59.8482C20.6095 59.8512 20.611 59.8539 20.6132 59.8561C20.6153 59.8583 20.618 59.8599 20.6209 59.8608C20.6239 59.8617 20.627 59.8619 20.63 59.8613C20.633 59.8608 20.6358 59.8594 20.6382 59.8575ZM26.2067 62.6878L23.4685 62.7301C23.4153 62.731 23.3646 62.7528 23.3272 62.7907C23.2899 62.8287 23.269 62.8798 23.269 62.933V65.0285C23.269 65.0734 23.2868 65.1164 23.3185 65.1481C23.3503 65.1798 23.3933 65.1976 23.4381 65.1976H38.8662C38.9279 65.1976 38.987 65.1731 39.0306 65.1295C39.0742 65.0859 39.0987 65.0268 39.0987 64.9651V63.0836C39.0987 62.9901 39.0621 62.9003 38.9968 62.8336C38.9316 62.7669 38.8428 62.7285 38.7495 62.7267L35.9294 62.6658L35.86 59.9497C35.8598 59.9397 35.8557 59.9303 35.8486 59.9233C35.8415 59.9164 35.8319 59.9125 35.822 59.9125H26.3107C26.2971 59.9125 26.2837 59.9151 26.2712 59.9203C26.2587 59.9255 26.2473 59.9331 26.2378 59.9427C26.2282 59.9523 26.2206 59.9636 26.2154 59.9762C26.2102 59.9887 26.2075 60.0021 26.2075 60.0156L26.2067 62.6878ZM39.1181 67.9163C39.1181 67.8515 39.0924 67.7893 39.0466 67.7435C39.0008 67.6977 38.9386 67.6719 38.8738 67.6719H23.5133C23.4485 67.6719 23.3864 67.6977 23.3406 67.7435C23.2948 67.7893 23.269 67.8515 23.269 67.9163V70.2384C23.269 70.3032 23.2948 70.3654 23.3406 70.4112C23.3864 70.457 23.4485 70.4828 23.5133 70.4828H38.8738C38.9386 70.4828 39.0008 70.457 39.0466 70.4112C39.0924 70.3654 39.1181 70.3032 39.1181 70.2384V67.9163Z" fill="black"/>
<path d="M20.5535 57.4839L20.6 59.6377C20.6002 59.6453 20.5989 59.6528 20.5962 59.6599C20.5935 59.667 20.5893 59.6734 20.584 59.6789C20.5788 59.6843 20.5724 59.6886 20.5654 59.6916C20.5585 59.6945 20.551 59.696 20.5434 59.696L18.3623 59.6927L18.4105 57.7063C18.4116 57.6602 18.4302 57.6163 18.4627 57.5837C18.4951 57.5511 18.5388 57.5323 18.5846 57.5312L20.5535 57.4839Z" fill="#696969"/>
<path d="M20.6381 59.8575C20.6357 59.8594 20.6329 59.8607 20.6299 59.8613C20.6268 59.8619 20.6237 59.8617 20.6208 59.8608C20.6179 59.8599 20.6152 59.8582 20.6131 59.856C20.6109 59.8538 20.6094 59.8511 20.6085 59.8482C20.5843 59.7743 20.6082 59.7306 20.6804 59.7171C20.69 59.7157 20.6999 59.7174 20.7085 59.7221C20.7171 59.7267 20.7239 59.7341 20.7279 59.743C20.7319 59.7519 20.7329 59.7619 20.7307 59.7714C20.7286 59.7809 20.7234 59.7895 20.7159 59.7958L20.6381 59.8575Z" fill="#696969"/>
<path d="M35.9292 62.6658L26.2065 62.6878L26.2074 60.0156C26.2074 60.0021 26.2101 59.9887 26.2152 59.9762C26.2204 59.9636 26.228 59.9523 26.2376 59.9427C26.2472 59.9331 26.2585 59.9255 26.2711 59.9203C26.2836 59.9151 26.297 59.9125 26.3105 59.9125H35.8218C35.8318 59.9125 35.8413 59.9164 35.8485 59.9233C35.8556 59.9303 35.8597 59.9397 35.8599 59.9497L35.9292 62.6658Z" fill="#696969"/>
<path d="M15.576 75.5134H18.1105C18.1443 75.5134 18.1768 75.5268 18.2007 75.5508C18.2247 75.5747 18.2381 75.6072 18.2381 75.6411V78.1788L18.1823 78.2059C18.162 78.2154 18.1409 78.2202 18.1189 78.2202H15.6775C15.6548 78.2202 15.6323 78.2157 15.6114 78.207C15.5905 78.1983 15.5715 78.1855 15.5555 78.1694C15.5396 78.1532 15.527 78.1341 15.5184 78.1131C15.5099 78.0921 15.5056 78.0696 15.5059 78.0469L15.5338 75.5379C15.5343 75.5266 15.54 75.519 15.5507 75.5151C15.558 75.5128 15.5665 75.5123 15.576 75.5134Z" fill="#696969"/>
<path d="M46.9366 75.5C46.9225 75.4944 46.9248 75.4989 46.9434 75.5135C46.9524 75.5203 46.9569 75.5296 46.9569 75.5414L47 77.9971C47.0023 78.1375 46.9335 78.2077 46.7937 78.2077H44.3404C44.3159 78.2077 44.2922 78.1987 44.2737 78.1823L44.2542 78.1646L44.2373 75.6725C44.2371 75.6502 44.2413 75.628 44.2498 75.6073C44.2582 75.5866 44.2707 75.5677 44.2865 75.5518C44.3023 75.5359 44.3211 75.5233 44.3418 75.5147C44.3625 75.5061 44.3848 75.5017 44.4072 75.5017L46.9366 75.5Z" fill="#696969"/>
<path d="M117 80.9525V85.77C116.943 85.8737 116.864 85.9504 116.762 86H107.295L106.905 85.9527C106.869 85.9485 106.836 85.9314 106.812 85.9046C106.788 85.8778 106.775 85.8431 106.775 85.8072L106.769 80.9931C106.769 80.9139 106.8 80.8379 106.856 80.7818C106.912 80.7256 106.988 80.6939 107.068 80.6937C110.272 80.6932 113.491 80.6932 116.725 80.6937C116.846 80.6937 116.938 80.78 117 80.9525Z" fill="black"/>
</g>
<defs>
<clipPath id="clip0_45_433">
<rect width="117" height="86" fill="white"/>
</clipPath>
</defs>
</svg>
