<svg width="169" height="74" viewBox="0 0 169 74" fill="none" xmlns="http://www.w3.org/2000/svg">
<path d="M91.6675 11.9408L95.955 8.19469C95.9637 8.18732 95.9743 8.18273 95.9856 8.18151C95.9969 8.18029 96.0084 8.1825 96.0184 8.18786L105.362 13.3627C105.371 13.3678 105.379 13.3752 105.384 13.3843C105.389 13.3933 105.392 13.4036 105.391 13.414L105.369 15.4973C105.369 15.5071 105.367 15.5168 105.362 15.5253C105.357 15.5339 105.35 15.541 105.341 15.546C105.333 15.5511 105.323 15.5538 105.313 15.5539C105.303 15.554 105.294 15.5516 105.285 15.5468L96.1725 10.7958C96.1624 10.7904 96.151 10.7882 96.1397 10.7895C96.1284 10.7907 96.1178 10.7953 96.1091 10.8026L91.7429 14.6821C91.7347 14.6894 91.7246 14.6941 91.7137 14.6958C91.7029 14.6975 91.6918 14.6959 91.6818 14.6914C91.6718 14.6869 91.6634 14.6795 91.6575 14.6703C91.6516 14.6611 91.6486 14.6503 91.6487 14.6394V11.9836C91.6486 11.9755 91.6502 11.9675 91.6535 11.9602C91.6567 11.9528 91.6615 11.9462 91.6675 11.9408Z" fill="white"/>
<path d="M10.8556 45.1879C10.3511 45.5855 10.3351 45.5667 10.8077 45.1315L31.586 25.9667C31.6202 25.9351 31.6617 25.9126 31.7068 25.9009C31.752 25.8893 31.7992 25.889 31.8445 25.9C46.1875 29.3909 60.538 32.8933 74.8958 36.407C75.1538 36.4708 75.385 36.587 75.5893 36.7556C78.6896 39.3134 81.9075 41.9647 85.243 44.7093C85.2764 44.7375 85.3186 44.7534 85.3625 44.7543C85.4064 44.7553 85.4494 44.7412 85.4845 44.7145C87.223 43.3803 88.9843 42.0245 90.7685 40.647C90.9614 40.4989 91.1783 40.4032 91.4191 40.3599C93.3551 40.0124 95.2706 39.6592 97.1655 39.3003C97.1899 39.2956 97.2125 39.2842 97.2308 39.2674C97.2492 39.2506 97.2625 39.2292 97.2694 39.2053C97.2763 39.1815 97.2765 39.1562 97.27 39.1323C97.2634 39.1083 97.2504 39.0866 97.2323 39.0696L70.4234 14.6001C70.3957 14.5746 70.3599 14.5598 70.3223 14.5582C70.2846 14.5567 70.2477 14.5685 70.2179 14.5915L58.4736 23.5296C58.4717 23.5313 58.4694 23.5326 58.467 23.5334C58.4646 23.5342 58.4621 23.5346 58.4595 23.5344C58.457 23.5343 58.4545 23.5336 58.4522 23.5325C58.4499 23.5314 58.4479 23.5298 58.4462 23.5279C58.4445 23.526 58.4432 23.5238 58.4424 23.5214C58.4415 23.519 58.4412 23.5164 58.4413 23.5139C58.4415 23.5113 58.4422 23.5089 58.4433 23.5066C58.4444 23.5043 58.446 23.5022 58.4479 23.5006L69.0279 13.3063C69.0589 13.277 69.0968 13.2559 69.1381 13.2448C69.1793 13.2338 69.2227 13.2332 69.2642 13.2431L93.1263 19.0777C93.1902 19.0936 93.2416 19.1284 93.2804 19.1819L95.8727 22.6939C95.8913 22.719 95.9173 22.7377 95.9471 22.7472C95.9769 22.7567 96.0089 22.7567 96.0386 22.747C96.0684 22.7374 96.0943 22.7187 96.1128 22.6935C96.1312 22.6683 96.1413 22.638 96.1416 22.6068L96.1484 12.6535C96.1484 12.5749 96.1832 12.5544 96.2529 12.592C98.626 13.8988 101.033 15.1384 103.473 16.3108C103.791 16.4623 104.144 16.6657 104.532 16.9209C104.929 17.1824 104.881 17.3704 104.883 17.8062C104.886 20.1042 104.876 21.6121 104.854 22.3299C104.852 22.3732 104.874 22.3948 104.917 22.3948L107.752 22.4324C107.807 22.4336 107.855 22.4529 107.895 22.4905L119.141 33.1753C119.191 33.222 119.25 33.2391 119.317 33.2265L133.813 30.3998C133.86 30.3907 133.901 30.4021 133.936 30.434C135.194 31.5517 136.43 32.6933 137.643 33.8589C143.057 39.0588 148.422 44.1938 153.737 49.2638C153.991 49.5065 153.981 49.5185 153.704 49.2997C148.022 44.7959 142.285 40.2619 136.494 35.6978C135.618 35.0073 134.595 34.4057 133.765 33.6196C133.273 33.1525 132.766 32.7235 132.245 32.3327C132.214 32.3093 132.175 32.2978 132.137 32.3003C132.098 32.3028 132.062 32.3192 132.034 32.3464C124.984 39.269 117.939 46.1916 110.898 53.1142C110.667 53.3398 109.869 54.1545 108.504 55.5581C107.194 56.9031 105.566 58.3455 104.443 59.4444C102.153 61.6809 99.8652 63.9203 97.5799 66.1625C97.5403 66.2009 97.4875 66.2223 97.4326 66.2223L60.893 66.2274C60.8119 66.2274 60.7982 66.1967 60.8519 66.1352C61.1584 65.7848 61.4204 65.4686 61.7936 65.1713C63.5048 63.7995 65.1879 62.4226 66.8431 61.0406C66.8595 61.0267 66.8729 61.0095 66.8823 60.9903C66.8918 60.971 66.8972 60.95 66.8982 60.9287C66.8991 60.9073 66.8957 60.886 66.8879 60.8662C66.8802 60.8463 66.8685 60.8283 66.8534 60.8133L33.2725 27.5971C33.254 27.579 33.2295 27.5684 33.2036 27.5671C33.1778 27.5659 33.1523 27.5741 33.1321 27.5902L10.8556 45.1879Z" fill="white"/>
<path d="M71.2111 19.6758L86.8886 35.2141C86.8954 35.2198 86.8954 35.2243 86.8886 35.2277C86.884 35.23 86.88 35.2323 86.8766 35.2346C86.8698 35.238 86.8629 35.2369 86.8561 35.2312C82.9932 31.8975 79.1144 28.5831 75.2195 25.2882C73.9045 24.1756 72.6512 22.9776 71.295 21.8018C71.2587 21.7701 71.2116 21.7532 71.1632 21.7545C71.1147 21.7558 71.0683 21.7751 71.0331 21.8086L61.7663 30.6801C61.7184 30.7256 61.6642 30.7359 61.6037 30.7108L58.8966 29.5949C58.8853 29.59 58.8754 29.5823 58.8678 29.5726C58.8603 29.5629 58.8553 29.5515 58.8534 29.5395C58.8515 29.5275 58.8528 29.5153 58.857 29.504C58.8613 29.4928 58.8684 29.4828 58.8777 29.4752L70.944 19.6621C70.9824 19.6311 71.0309 19.6154 71.0802 19.6179C71.1295 19.6205 71.1761 19.6411 71.2111 19.6758Z" fill="white"/>
<path d="M70.5957 26.157L68.5068 26.1388C68.3612 26.1375 68.2421 26.2543 68.2409 26.3997L68.2231 28.4367C68.2218 28.5821 68.3388 28.7009 68.4844 28.7022L70.5733 28.7204C70.7189 28.7216 70.838 28.6048 70.8393 28.4595L70.8571 26.4224C70.8584 26.2771 70.7413 26.1582 70.5957 26.157Z" fill="white"/>
<path d="M73.4812 26.218L71.3275 26.1805C71.2103 26.1785 71.1136 26.2717 71.1115 26.3887L71.0747 28.4973C71.0726 28.6143 71.166 28.7108 71.2832 28.7129L73.4369 28.7504C73.5542 28.7524 73.6509 28.6592 73.6529 28.5422L73.6898 26.4336C73.6918 26.3166 73.5985 26.2201 73.4812 26.218Z" fill="white"/>
<path d="M70.6866 29.1366L68.3785 29.1406C68.2886 29.1407 68.2159 29.2136 68.2161 29.3032L68.22 31.5215C68.2201 31.6112 68.2931 31.6837 68.3829 31.6836L70.6911 31.6796C70.7809 31.6794 70.8536 31.6066 70.8534 31.5169L70.8496 29.2986C70.8494 29.209 70.7764 29.1364 70.6866 29.1366Z" fill="white"/>
<path d="M73.4611 29.1039L71.3037 29.1152C71.1713 29.1159 71.0645 29.2235 71.0652 29.3557L71.0764 31.4885C71.0771 31.6206 71.185 31.7272 71.3174 31.7265L73.4748 31.7152C73.6072 31.7145 73.7139 31.6069 73.7133 31.4747L73.7021 29.3419C73.7014 29.2098 73.5935 29.1032 73.4611 29.1039Z" fill="white"/>
<path d="M33.0311 33.6025C39.1336 39.5703 45.2413 45.6134 51.2513 51.6C51.531 51.8792 51.5201 51.8911 51.2188 51.6359L34.1167 37.2136C33.9991 37.1145 33.8816 37.1151 33.764 37.2153C26.0189 43.8782 18.2452 50.5712 10.443 57.2944C9.81462 57.8345 9.05438 58.8667 8.17599 58.8975C6.67833 58.9488 5.18296 58.9556 3.68987 58.918C3.64764 58.918 3.6425 58.9038 3.67446 58.8753L32.8976 33.5991C32.9165 33.5828 32.9407 33.5741 32.9655 33.5747C32.9902 33.5753 33.0137 33.5853 33.0311 33.6025Z" fill="white"/>
<path d="M131.303 41.9818C125.375 46.8593 119.386 51.6838 113.504 56.6365C113.483 56.6536 113.466 56.6564 113.451 56.645C113.445 56.6416 113.442 56.6365 113.441 56.6297C113.437 56.6194 113.44 56.6091 113.449 56.5989C119.738 50.4618 126.033 44.3607 132.363 38.2271C132.452 38.1405 132.543 38.1376 132.637 38.2185L161.836 63.2435C161.901 63.2993 161.891 63.3267 161.805 63.3255C160.339 63.3005 158.878 63.3159 157.422 63.3717C156.656 63.4007 156.365 63.2247 155.826 62.7513C147.819 55.7273 139.616 48.8861 131.495 41.9835C131.468 41.9605 131.434 41.9478 131.399 41.9474C131.364 41.9471 131.33 41.9593 131.303 41.9818Z" fill="white"/>
<path d="M32.0776 50.146L26.5436 50.1556C26.5086 50.1557 26.4803 50.184 26.4803 50.219L26.4902 55.8689C26.4903 55.9039 26.5187 55.9321 26.5537 55.9321L32.0877 55.9224C32.1227 55.9224 32.151 55.894 32.1509 55.8591L32.1411 50.2091C32.141 50.1742 32.1126 50.1459 32.0776 50.146Z" fill="white"/>
<path d="M38.6971 50.1577H33.098C33.0734 50.1577 33.0535 50.1775 33.0535 50.2021V55.8828C33.0535 55.9074 33.0734 55.9273 33.098 55.9273H38.6971C38.7217 55.9273 38.7416 55.9074 38.7416 55.8828V50.2021C38.7416 50.1775 38.7217 50.1577 38.6971 50.1577Z" fill="white"/>
<path d="M140.068 53.0341L134.767 53.0064C134.643 53.0058 134.542 53.1055 134.541 53.2291L134.513 58.5919C134.513 58.7156 134.612 58.8163 134.736 58.817L140.037 58.8447C140.161 58.8453 140.262 58.7456 140.263 58.622L140.291 53.2592C140.292 53.1355 140.192 53.0348 140.068 53.0341Z" fill="white"/>
<path d="M133.582 53.0456L128.079 53.0839C128.019 53.0843 127.972 53.1329 127.972 53.1923L128.011 58.7601C128.011 58.8196 128.06 58.8675 128.12 58.867L133.623 58.8287C133.682 58.8283 133.73 58.7797 133.73 58.7203L133.691 53.1525C133.69 53.093 133.642 53.0451 133.582 53.0456Z" fill="white"/>
<path d="M32.0773 56.831L26.6049 56.8214C26.5473 56.8213 26.5004 56.8679 26.5003 56.9255L26.4906 62.4832C26.4905 62.5408 26.5372 62.5875 26.5949 62.5876L32.0672 62.5972C32.1249 62.5973 32.1718 62.5507 32.1719 62.4931L32.1816 56.9354C32.1817 56.8778 32.135 56.8311 32.0773 56.831Z" fill="white"/>
<path d="M38.6269 56.8245H33.1921C33.1184 56.8245 33.0586 56.8842 33.0586 56.9578V62.4711C33.0586 62.5447 33.1184 62.6044 33.1921 62.6044H38.6269C38.7006 62.6044 38.7604 62.5447 38.7604 62.4711V56.9578C38.7604 56.8842 38.7006 56.8245 38.6269 56.8245Z" fill="white"/>
<path d="M133.503 59.7298H128.151C128.05 59.7298 127.969 59.8109 127.969 59.911V65.3593C127.969 65.4593 128.05 65.5404 128.151 65.5404H133.503C133.604 65.5404 133.685 65.4593 133.685 65.3593V59.911C133.685 59.8109 133.604 59.7298 133.503 59.7298Z" fill="white"/>
<path d="M140.138 59.7328L134.734 59.7234C134.655 59.7233 134.59 59.7874 134.59 59.8667L134.58 65.3731C134.58 65.4524 134.645 65.5168 134.724 65.5169L140.128 65.5263C140.207 65.5265 140.272 65.4623 140.272 65.383L140.282 59.8766C140.282 59.7973 140.217 59.7329 140.138 59.7328Z" fill="white"/>
</svg>
