<svg width="112" height="112" viewBox="0 0 112 112" fill="none" xmlns="http://www.w3.org/2000/svg">
<g clip-path="url(#clip0_46_478)">
<rect width="112" height="112" fill="#D9D9D9"/>
<path d="M96.2989 61.6583L107.308 61.6817C107.618 61.6879 107.914 61.8137 108.131 62.0323C108.348 62.2509 108.47 62.5448 108.47 62.8508V106.435C108.47 106.798 108.542 107.157 108.681 107.49C108.821 107.823 109.025 108.125 109.283 108.376L111.443 110.574C112.356 111.478 112.171 111.93 110.885 111.93L1.4868 112C1.10487 112.009 0.734917 111.865 0.458319 111.6C0.18172 111.335 0.0211367 110.97 0.0118965 110.585C0.00265629 110.201 0.145515 109.828 0.409046 109.55C0.672577 109.271 1.03519 109.11 1.41712 109.101L3.41463 109.007C4.15789 108.96 4.52952 108.563 4.52952 107.815V63.1548C4.52952 62.7641 4.68125 62.3894 4.95131 62.1132C5.22137 61.8369 5.58766 61.6817 5.96959 61.6817H15.7249C16.4308 61.6781 17.1189 61.452 17.6917 61.0353C18.2646 60.6186 18.6931 60.0325 18.9167 59.36C19.1402 58.6875 19.1474 57.9627 18.9372 57.2883C18.727 56.6139 18.3102 56.0241 17.7456 55.6024C14.6177 53.233 13.1544 49.8738 13.3557 45.5247C13.3797 44.9808 13.6169 44.4681 14.0164 44.0965C14.4159 43.725 14.9458 43.5242 15.4926 43.5373L25.3176 43.7009C26.2002 43.7165 26.8273 43.319 27.199 42.5084C31.7979 32.4074 39.1608 25.0888 49.2877 20.5527C49.4351 20.4835 49.5667 20.3844 49.6744 20.2617C49.782 20.1391 49.8635 19.9954 49.9136 19.8396C49.9637 19.6839 49.9814 19.5194 49.9657 19.3565C49.9499 19.1936 49.901 19.0357 49.8219 18.8926C45.3314 10.8336 47.0347 4.61395 54.9318 0.233711C55.2432 0.0653328 55.5938 -0.015793 55.947 -0.00119528C56.3002 0.0134024 56.643 0.123188 56.9397 0.316698C57.2363 0.510208 57.4759 0.780344 57.6334 1.0989C57.791 1.41745 57.8606 1.77274 57.8352 2.12766C57.3087 8.9708 60.5992 12.2287 67.7066 11.9014C67.9821 11.8857 68.2566 11.9463 68.5002 12.0767C68.7439 12.207 68.9474 12.4021 69.0887 12.6407C69.2299 12.8793 69.3035 13.1523 69.3015 13.4301C69.2994 13.7078 69.2218 13.9797 69.077 14.2162L66.1272 19.0796C65.9665 19.3451 65.8594 19.6399 65.8121 19.9471C65.7649 20.2542 65.7783 20.5678 65.8517 20.8698C65.925 21.1717 66.0569 21.4561 66.2397 21.7067C66.4225 21.9572 66.6526 22.1689 66.9169 22.3297C71.7326 25.1979 76.0683 28.8455 79.924 33.2725C85.4984 39.7026 83.4312 46.6471 96.2292 43.093C96.7599 42.9442 97.3213 42.9541 97.8461 43.1214C98.3709 43.2886 98.8367 43.6062 99.1875 44.0359C99.5383 44.4656 99.7592 44.9892 99.8236 45.5436C99.888 46.0981 99.7933 46.6599 99.5507 47.1615L94.1388 58.1744C93.9576 58.5406 93.8731 58.9471 93.893 59.3558C93.913 59.7645 94.0369 60.1618 94.253 60.5103C94.4691 60.8588 94.7703 61.1471 95.1282 61.348C95.4862 61.5488 95.889 61.6556 96.2989 61.6583ZM52.493 6.71054C47.3599 10.8725 54.235 20.7631 60.9941 18.0976C61.3735 17.95 61.6948 17.684 61.9109 17.3382C62.1271 16.9925 62.2269 16.5851 62.1958 16.1754C62.1647 15.7657 62.0043 15.3751 61.738 15.0605C61.4717 14.746 61.1134 14.5239 60.7153 14.4266C57.0455 13.5537 54.9473 11.2389 54.4209 7.48215C54.3943 7.27052 54.3119 7.06994 54.1822 6.9013C54.0524 6.73266 53.8801 6.60213 53.6833 6.52332C53.4864 6.44452 53.2721 6.42032 53.0627 6.45325C52.8534 6.48617 52.6566 6.57503 52.493 6.71054ZM80.8066 41.807C76.6025 33.1556 62.016 19.4304 52.3537 23.3352C43.1713 27.0295 36.2961 33.2336 31.7282 41.9473C31.6096 42.1812 31.5523 42.4416 31.5616 42.704C31.5709 42.9664 31.6466 43.2221 31.7815 43.4469C31.9164 43.6716 32.106 43.858 32.3324 43.9884C32.5588 44.1188 32.8145 44.1888 33.0754 44.192L79.413 44.0517C79.6753 44.0501 79.9331 43.9818 80.1622 43.853C80.3913 43.7243 80.5843 43.5394 80.7234 43.3154C80.8624 43.0914 80.943 42.8357 80.9575 42.572C80.9721 42.3082 80.9202 42.0451 80.8066 41.807ZM94.4175 48.7748C94.4175 48.4648 94.2952 48.1674 94.0774 47.9482C93.8596 47.7289 93.5642 47.6057 93.2562 47.6057H19.6734C19.3654 47.6057 19.07 47.7289 18.8523 47.9482C18.6345 48.1674 18.5121 48.4648 18.5121 48.7748V49.9907C18.5121 50.3008 18.6345 50.5981 18.8523 50.8174C19.07 51.0366 19.3654 51.1598 19.6734 51.1598H93.2562C93.5642 51.1598 93.8596 51.0366 94.0774 50.8174C94.2952 50.5981 94.4175 50.3008 94.4175 49.9907V48.7748ZM29.3591 58.1978C29.3591 57.187 28.9602 56.2176 28.2502 55.5028C27.5402 54.7881 26.5772 54.3865 25.5731 54.3865C24.569 54.3865 23.606 54.7881 22.896 55.5028C22.186 56.2176 21.7871 57.187 21.7871 58.1978C21.7871 59.2086 22.186 60.178 22.896 60.8928C23.606 61.6075 24.569 62.0091 25.5731 62.0091C26.5772 62.0091 27.5402 61.6075 28.2502 60.8928C28.9602 60.178 29.3591 59.2086 29.3591 58.1978ZM79.4613 57.1398C79.4619 56.8204 79.4 56.5041 79.2791 56.2088C79.1582 55.9135 78.9807 55.6451 78.7568 55.4189C78.5329 55.1927 78.2669 55.0131 77.974 54.8903C77.6811 54.7676 77.3671 54.7041 77.0499 54.7036L35.4273 54.6306C34.7867 54.6295 34.1719 54.8846 33.7181 55.3398C33.2643 55.795 33.0087 56.413 33.0075 57.0579L33.0038 59.2091C33.0032 59.5284 33.0652 59.8448 33.186 60.1401C33.3069 60.4353 33.4844 60.7037 33.7083 60.93C33.9322 61.1562 34.1982 61.3358 34.4911 61.4585C34.784 61.5812 35.098 61.6447 35.4152 61.6453L77.0378 61.7182C77.6784 61.7193 78.2932 61.4642 78.747 61.009C79.2008 60.5538 79.4564 59.9358 79.4576 59.2909L79.4613 57.1398ZM90.5386 58.1744C90.5386 57.1574 90.1373 56.182 89.423 55.4629C88.7086 54.7438 87.7397 54.3398 86.7294 54.3398C85.7192 54.3398 84.7503 54.7438 84.0359 55.4629C83.3216 56.182 82.9202 57.1574 82.9202 58.1744C82.9202 59.1914 83.3216 60.1668 84.0359 60.8859C84.7503 61.6051 85.7192 62.0091 86.7294 62.0091C87.7397 62.0091 88.7086 61.6051 89.423 60.8859C90.1373 60.1668 90.5386 59.1914 90.5386 58.1744ZM31.3798 72.6947C26.1615 72.4297 21.1135 72.2426 16.2359 72.1335C15.8108 72.1335 15.4032 71.9635 15.1026 71.661C14.8021 71.3584 14.6332 70.948 14.6332 70.5201C14.6332 70.0922 14.8021 69.6819 15.1026 69.3793C15.4032 69.0768 15.8108 68.9068 16.2359 68.9068L31.0082 68.6028C31.3818 68.5907 31.7362 68.435 31.9963 68.1689C32.2563 67.9027 32.4018 67.5468 32.4018 67.1765V66.3581C32.4018 66.0481 32.2794 65.7507 32.0616 65.5315C31.8438 65.3122 31.5484 65.189 31.2404 65.189H9.29103C8.4239 65.189 7.99807 65.6177 8.01356 66.475C8.01356 66.7712 8.01356 67.0674 8.01356 67.3636C7.99807 67.7221 8.14517 68.0027 8.45487 68.2053L11.335 70.0291C11.579 70.1767 11.7682 70.4009 11.8735 70.6671C11.9788 70.9334 11.9944 71.2271 11.9179 71.5032C11.8415 71.7792 11.6772 72.0224 11.4502 72.1954C11.2232 72.3684 10.9461 72.4616 10.6614 72.4609C8.71036 72.492 7.82774 73.4039 8.01356 75.1965C8.07549 75.9292 8.47809 76.2955 9.22135 76.2955L31.0546 76.2721C31.3493 76.2737 31.6361 76.1728 31.8682 75.9859C32.1003 75.799 32.2638 75.5372 32.3321 75.2433C32.6882 73.591 32.3708 72.7414 31.3798 72.6947ZM75.9522 66.7556C75.9522 66.5499 75.9119 66.3462 75.8337 66.1561C75.7555 65.966 75.6409 65.7934 75.4964 65.6479C75.3519 65.5024 75.1803 65.387 74.9915 65.3083C74.8027 65.2296 74.6003 65.189 74.396 65.189H38.5801C38.3758 65.189 38.1734 65.2296 37.9846 65.3083C37.7958 65.387 37.6242 65.5024 37.4797 65.6479C37.3352 65.7934 37.2206 65.966 37.1424 66.1561C37.0642 66.3462 37.0239 66.5499 37.0239 66.7556V67.1297C37.0239 67.3355 37.0642 67.5392 37.1424 67.7293C37.2206 67.9193 37.3352 68.092 37.4797 68.2375C37.6242 68.383 37.7958 68.4984 37.9846 68.5771C38.1734 68.6558 38.3758 68.6963 38.5801 68.6963H74.396C74.6003 68.6963 74.8027 68.6558 74.9915 68.5771C75.1803 68.4984 75.3519 68.383 75.4964 68.2375C75.6409 68.092 75.7555 67.9193 75.8337 67.7293C75.9119 67.5392 75.9522 67.3355 75.9522 67.1297V66.7556ZM104.359 66.8258C104.359 66.3917 104.187 65.9754 103.882 65.6684C103.578 65.3615 103.164 65.189 102.733 65.189H81.5963C81.1651 65.189 80.7515 65.3615 80.4466 65.6684C80.1417 65.9754 79.9704 66.3917 79.9704 66.8258V67.0596C79.9704 67.4937 80.1417 67.91 80.4466 68.2169C80.7515 68.5239 81.1651 68.6963 81.5963 68.6963H102.733C103.164 68.6963 103.578 68.5239 103.882 68.2169C104.187 67.91 104.359 67.4937 104.359 67.0596V66.8258ZM75.9289 74.1911C75.9289 73.664 75.7209 73.1585 75.3507 72.7858C74.9804 72.413 74.4783 72.2037 73.9547 72.2037H38.975C38.4514 72.2037 37.9492 72.413 37.579 72.7858C37.2087 73.1585 37.0007 73.664 37.0007 74.1911V74.2847C37.0007 74.5456 37.0518 74.8041 37.151 75.0452C37.2502 75.2864 37.3956 75.5054 37.579 75.69C37.7623 75.8746 37.9799 76.021 38.2195 76.1208C38.459 76.2207 38.7157 76.2721 38.975 76.2721H73.9547C74.2139 76.2721 74.4707 76.2207 74.7102 76.1208C74.9497 76.021 75.1674 75.8746 75.3507 75.69C75.534 75.5054 75.6794 75.2864 75.7787 75.0452C75.8779 74.8041 75.9289 74.5456 75.9289 74.2847V74.1911ZM103.36 72.9051C96.5776 72.7414 87.2869 71.3619 80.8763 72.9285C80.4723 73.0257 80.1178 73.2688 79.88 73.6117C79.6423 73.9546 79.5379 74.3735 79.5866 74.7887C79.6353 75.204 79.8337 75.5868 80.1442 75.8646C80.4547 76.1423 80.8557 76.2957 81.2711 76.2955H95.8344C96.7944 76.2955 97.3441 76.7787 97.4835 77.7452C97.6228 78.8831 97.0654 79.6703 95.8111 80.1068C95.3002 80.2938 94.7659 80.3718 94.2085 80.3406L81.875 79.6391C80.6053 79.5612 79.9549 80.1613 79.924 81.4396L79.2736 107.791C79.2663 108.035 79.3213 108.277 79.4333 108.493C79.5453 108.709 79.7106 108.893 79.9134 109.027C80.1161 109.161 80.3495 109.24 80.5913 109.257C80.8331 109.274 81.0751 109.228 81.2943 109.124L82.5022 108.563C83.137 108.267 83.4545 107.768 83.4545 107.066L83.408 88.3139C83.408 87.917 83.5646 87.5364 83.8434 87.2557C84.1222 86.9751 84.5003 86.8174 84.8945 86.8174H99.7829C99.974 86.8174 100.163 86.8557 100.339 86.93C100.516 87.0043 100.675 87.1132 100.81 87.2503C100.944 87.3874 101.049 87.5499 101.12 87.7285C101.191 87.9071 101.226 88.0982 101.223 88.2905C101.161 94.5881 101.153 100.862 101.2 107.113C101.2 108.235 101.85 108.882 103.151 109.054C103.318 109.077 103.487 109.064 103.649 109.016C103.81 108.968 103.959 108.886 104.087 108.776C104.214 108.665 104.317 108.528 104.388 108.375C104.459 108.221 104.496 108.054 104.498 107.885L104.359 81.9306C104.359 81.6833 104.305 81.4406 104.2 81.2216C104.095 81.0026 103.943 80.8131 103.755 80.6679L101.827 79.1247C101.635 78.9665 101.511 78.7412 101.481 78.4967C101.451 78.2522 101.516 78.0078 101.664 77.8153L104.173 74.6588C104.299 74.5021 104.379 74.3127 104.404 74.1123C104.429 73.9119 104.397 73.7087 104.312 73.5257C104.227 73.3428 104.093 73.1875 103.924 73.0778C103.756 72.968 103.56 72.9082 103.36 72.9051ZM29.1268 88.5945L28.8248 107.113C28.7939 108.157 29.2971 108.734 30.3346 108.843L31.8211 108.984C31.9864 109 32.1532 108.982 32.3108 108.931C32.4684 108.879 32.6132 108.796 32.7359 108.686C32.8585 108.575 32.9563 108.441 33.0228 108.291C33.0892 108.141 33.123 107.978 33.1218 107.815V82.2112C33.1218 81.5724 32.8698 80.9599 32.4211 80.5082C31.9724 80.0566 31.3639 79.8028 30.7294 79.8028H9.15167C8.79221 79.8028 8.44712 79.9449 8.19078 80.1986C7.93444 80.4523 7.78738 80.7972 7.78129 81.159L7.64193 107.37C7.6409 107.632 7.6973 107.891 7.80709 108.128C7.91689 108.365 8.07737 108.575 8.27707 108.742C8.47678 108.91 8.71077 109.031 8.96234 109.097C9.21391 109.163 9.47684 109.172 9.73234 109.124C11.3582 108.797 12.086 107.83 11.9157 106.225C11.3273 100.628 11.2344 94.8686 11.6369 88.9452C11.6708 88.5503 11.8458 88.1819 12.1286 87.9102C12.4113 87.6385 12.782 87.4826 13.1699 87.4721L27.5009 86.9811C27.715 86.9713 27.9288 87.0062 28.1289 87.0835C28.3291 87.1608 28.5111 87.2789 28.6638 87.4304C28.8164 87.5819 28.9363 87.7635 29.016 87.9638C29.0957 88.1641 29.1334 88.3788 29.1268 88.5945ZM44.0384 84.8767C44.0384 84.4612 44.2024 84.0628 44.4942 83.769C44.7861 83.4752 45.1819 83.3101 45.5946 83.3101L67.5208 83.3569C67.7271 83.3569 67.9314 83.3981 68.1218 83.4783C68.3121 83.5585 68.4847 83.676 68.6295 83.824C68.7743 83.9719 68.8885 84.1474 68.9653 84.3402C69.0421 84.5329 69.0801 84.7392 69.077 84.9469L68.7983 107.417C68.7952 107.625 68.8332 107.831 68.91 108.024C68.9868 108.216 69.101 108.392 69.2458 108.54C69.3906 108.688 69.5632 108.805 69.7535 108.886C69.9439 108.966 70.1482 109.007 70.3545 109.007H74.396C74.8087 109.007 75.2045 108.842 75.4964 108.548C75.7882 108.254 75.9522 107.856 75.9522 107.44V81.3694C75.9522 81.1637 75.9119 80.96 75.8337 80.7699C75.7555 80.5798 75.6409 80.4071 75.4964 80.2617C75.3519 80.1162 75.1803 80.0008 74.9915 79.9221C74.8027 79.8433 74.6003 79.8028 74.396 79.8028H38.0227C37.8183 79.8028 37.616 79.8433 37.4271 79.9221C37.2383 80.0008 37.0668 80.1162 36.9223 80.2617C36.7778 80.4071 36.6631 80.5798 36.5849 80.7699C36.5067 80.96 36.4665 81.1637 36.4665 81.3694V107.323C36.4663 107.731 36.6239 108.123 36.9057 108.415C37.1876 108.708 37.5716 108.878 37.9762 108.89L42.4126 109.03C42.6208 109.037 42.8282 109.001 43.0224 108.925C43.2166 108.849 43.3936 108.734 43.5431 108.588C43.6926 108.442 43.8114 108.267 43.8925 108.074C43.9736 107.881 44.0153 107.674 44.0152 107.464L44.0384 84.8767ZM65.0523 88.493C65.0528 88.1892 64.9333 87.8976 64.7203 87.6824C64.5073 87.4672 64.218 87.3459 63.9162 87.3454L48.5865 87.3183C48.437 87.318 48.2889 87.3474 48.1507 87.4047C48.0125 87.462 47.8869 87.5462 47.781 87.6524C47.6751 87.7587 47.5911 87.8848 47.5337 88.0238C47.4762 88.1627 47.4465 88.3116 47.4463 88.4621L47.4128 107.822C47.4123 108.126 47.5317 108.418 47.7448 108.633C47.9578 108.848 48.2471 108.969 48.5489 108.97L63.8786 108.997C64.0281 108.997 64.1761 108.968 64.3144 108.911C64.4526 108.853 64.5782 108.769 64.6841 108.663C64.7899 108.557 64.874 108.431 64.9314 108.292C64.9889 108.153 65.0186 108.004 65.0188 107.853L65.0523 88.493ZM25.9268 92.478C25.92 91.9137 25.6907 91.3753 25.2896 90.9812C24.8884 90.5871 24.3481 90.3695 23.7876 90.3764L16.8665 90.4615C16.306 90.4684 15.7711 90.6992 15.3796 91.103C14.9881 91.5069 14.772 92.0508 14.7788 92.615L14.9531 106.971C14.9599 107.535 15.1891 108.073 15.5903 108.467C15.9915 108.862 16.5317 109.079 17.0922 109.072L24.0134 108.987C24.5739 108.98 25.1087 108.749 25.5002 108.346C25.8917 107.942 26.1078 107.398 26.101 106.834L25.9268 92.478ZM97.3399 92.5325C97.3365 92.0364 97.1375 91.562 96.7866 91.2137C96.4357 90.8653 95.9618 90.6716 95.469 90.675L88.5939 90.7232C88.3498 90.7249 88.1086 90.775 87.8838 90.8705C87.659 90.9661 87.4551 91.1054 87.2838 91.2803C87.1124 91.4552 86.977 91.6624 86.8852 91.89C86.7934 92.1176 86.747 92.3612 86.7487 92.6068L86.8498 107.15C86.8532 107.646 87.0522 108.12 87.4031 108.469C87.754 108.817 88.2279 109.011 88.7207 109.007L95.5958 108.959C95.8399 108.958 96.0811 108.907 96.3059 108.812C96.5307 108.716 96.7346 108.577 96.906 108.402C97.0773 108.227 97.2127 108.02 97.3045 107.792C97.3963 107.565 97.4427 107.321 97.441 107.076L97.3399 92.5325Z" fill="black"/>
</g>
<defs>
<clipPath id="clip0_46_478">
<rect width="112" height="112" fill="white"/>
</clipPath>
</defs>
</svg>
