<?xml version="1.0" encoding="UTF-8" standalone="no"?>
<!DOCTYPE svg PUBLIC "-//W3C//DTD SVG 1.1//EN" "http://www.w3.org/Graphics/SVG/1.1/DTD/svg11.dtd">
<svg xmlns="http://www.w3.org/2000/svg" version="1.1" viewBox="0.00 0.00 200.00 200.00">
<path fill="#231f20" d="
  M 65.09 67.91
  C 59.93 42.87 85.48 20.00 109.47 27.49
  C 126.87 32.93 137.39 48.87 134.94 67.51
  C 132.95 82.61 119.26 92.96 105.23 96.10
  Q 100.30 97.20 95.31 96.24
  C 80.55 93.39 68.15 82.73 65.09 67.91
  Z"
/>
<path fill="#231f20" d="
  M 71.33 170.66
  C 61.73 168.62 46.16 163.18 46.16 151.11
  C 46.15 126.33 63.08 106.32 86.71 99.83
  C 90.02 98.92 94.21 98.46 97.95 97.61
  Q 100.00 97.15 102.06 97.64
  C 105.78 98.52 109.99 99.01 113.26 99.92
  C 135.01 105.95 150.13 122.16 153.55 144.69
  C 154.73 152.48 153.89 158.60 147.13 162.89
  C 142.43 165.88 138.13 168.23 132.66 169.61
  Q 102.24 177.26 71.33 170.66
  Z"
/>
</svg>
